<svg width="32" height="32" viewBox="0 0 32 32" fill="none" xmlns="http://www.w3.org/2000/svg">
<g clip-path="url(#clip0_105_230)">
<rect width="32" height="32" rx="8" fill="#0A0D12"/>
<rect width="32" height="32" fill="url(#paint0_linear_105_230)"/>
<g filter="url(#filter0_d_105_230)">
<path fill-rule="evenodd" clip-rule="evenodd" d="M16 26C21.5228 26 26 21.5228 26 16C26 10.4772 21.5228 6 16 6C10.4772 6 6 10.4772 6 16C6 21.5228 10.4772 26 16 26ZM18.5 18C20.9853 18 23 15.9853 23 13.5C23 11.0147 20.9853 9 18.5 9C16.0147 9 14 11.0147 14 13.5C14 15.9853 16.0147 18 18.5 18Z" fill="url(#paint1_linear_105_230)"/>
</g>
</g>
<rect x="0.666667" y="0.666667" width="30.6667" height="30.6667" rx="7.33333" stroke="url(#paint2_linear_105_230)" stroke-width="1.33333"/>
<defs>
<filter id="filter0_d_105_230" x="4" y="3.5" width="24" height="28" filterUnits="userSpaceOnUse" color-interpolation-filters="sRGB">
<feFlood flood-opacity="0" result="BackgroundImageFix"/>
<feColorMatrix in="SourceAlpha" type="matrix" values="0 0 0 0 0 0 0 0 0 0 0 0 0 0 0 0 0 0 127 0" result="hardAlpha"/>
<feMorphology radius="1" operator="erode" in="SourceAlpha" result="effect1_dropShadow_105_230"/>
<feOffset dy="1.5"/>
<feGaussianBlur stdDeviation="1.5"/>
<feComposite in2="hardAlpha" operator="out"/>
<feColorMatrix type="matrix" values="0 0 0 0 0.141176 0 0 0 0 0.141176 0 0 0 0 0.141176 0 0 0 0.1 0"/>
<feBlend mode="normal" in2="BackgroundImageFix" result="effect1_dropShadow_105_230"/>
<feBlend mode="normal" in="SourceGraphic" in2="effect1_dropShadow_105_230" result="shape"/>
</filter>
<linearGradient id="paint0_linear_105_230" x1="16" y1="3.97364e-07" x2="17.3333" y2="32" gradientUnits="userSpaceOnUse">
<stop stop-color="white" stop-opacity="0"/>
<stop offset="1" stop-color="white" stop-opacity="0.12"/>
</linearGradient>
<linearGradient id="paint1_linear_105_230" x1="16" y1="6" x2="16" y2="26" gradientUnits="userSpaceOnUse">
<stop stop-color="white" stop-opacity="0.8"/>
<stop offset="1" stop-color="white" stop-opacity="0.5"/>
</linearGradient>
<linearGradient id="paint2_linear_105_230" x1="16" y1="0" x2="16" y2="32" gradientUnits="userSpaceOnUse">
<stop stop-color="white" stop-opacity="0.12"/>
<stop offset="1" stop-color="white" stop-opacity="0"/>
</linearGradient>
<clipPath id="clip0_105_230">
<rect width="32" height="32" rx="8" fill="white"/>
</clipPath>
</defs>
</svg>
